# xmcd
#
# Track frame offsets:
#	150
#	6338
#	16735
#	27287
#	37755
#	48008
#	54959
#	63883
#	72142
#	79968
#	84902
#	94093
#	100119
#	108075
#	115458
#	122206
#	130216
#	139731
#	151543
#	158493
#	166715
#	172795
#	179976
#	188261
#	193926
#	200982
#	208780
#	215368
#	224705
#	232383
#
# Disc length: 3202
#
# Revision: 3
# Processed by: cddbd v1.5.1PL0 Copyright (c) Steve Scherf et al.
# Submitted via: EasyCDDAExtractor 5.0.2.1
# Normalized: r2:DSETVAR1
#
DISCID=940c801e
DTITLE=Various Artist - 30 Country Treffers Vol. 1
DYEAR=2001
DGENRE=Country
TTITLE0=Huerta - Wasted Days And Wasted Nights
TTITLE1=Don Gibson - I Can't Stop Loving You
TTITLE2=Robert Mc Dill - Amanda
TTITLE3=P.W. King - Tennessee Waltz
TTITLE4=Theunnissen - Smile
TTITLE5=P.D. Spencer.C. Norman - Mexican Girl
TTITLE6=Shania Twain - Don't Be Stupid
TTITLE7=Mark Knopfler - The Walk Of Life
TTITLE8=Allen Reynolds - I recall A Gypsy Woman
TTITLE9=J. Davids - You Are My Sunshine
TTITLE10=John Hartford - Gentle On My Mind
TTITLE11=Dolly Parton - Jolene
TTITLE12=Kristoffer - Help Me Make It Through The Night
TTITLE13=G and Parson - Love Hurts
TTITLE14=R. orbison - Only The Lonely
TTITLE15=Alan Jackson - Livin' On Love
TTITLE16=Deutschee - You Want Love (Maria Maria)
TTITLE17=Roy Turk - Are You Lonesome Tonight
TTITLE18=Mann Kolber - Patches
TTITLE19=Betty Sue Perry - Medals For Mothers
TTITLE20=W. Nelson - On The Road Again
TTITLE21=Don Gibson - Oh! Lonesome Me
TTITLE22=Eduard Storbeck - She's A Woman
TTITLE23=Franz V. Suppe - Love And Roses
TTITLE24=Werner - Georgie
TTITLE25=Giraud - Mammy Blue
TTITLE26=Mac Davis - Tequila Sheila
TTITLE27=Mendez - Cucurucucu Paloma
TTITLE28=W. Jennings - You Ask Me
TTITLE29=Don Schlitz - The Gambler
EXTD=
EXTT0=
EXTT1=
EXTT2=
EXTT3=
EXTT4=
EXTT5=
EXTT6=
EXTT7=
EXTT8=
EXTT9=
EXTT10=
EXTT11=
EXTT12=
EXTT13=
EXTT14=
EXTT15=
EXTT16=
EXTT17=
EXTT18=
EXTT19=
EXTT20=
EXTT21=
EXTT22=
EXTT23=
EXTT24=
EXTT25=
EXTT26=
EXTT27=
EXTT28=
EXTT29=
PLAYORDER=
